<?xml version="1.0" encoding="utf-8"?>
<!-- Generator: Adobe Illustrator 24.0.0, SVG Export Plug-In . SVG Version: 6.00 Build 0)  -->
<svg version="1.1" id="Capa_1" xmlns="http://www.w3.org/2000/svg" xmlns:xlink="http://www.w3.org/1999/xlink" x="0px" y="0px"
	 viewBox="0 0 38.4 46.6" style="enable-background:new 0 0 38.4 46.6;" xml:space="preserve">
<style type="text/css">
	.st0{fill:#FFFFFF;}
</style>
<g>
	<g>
		<path class="st0" d="M9.7,41.9c-0.8-1-1.6-1.9-2.3-2.8c-3.3-4.5-5.7-9.4-6.6-15c-0.8-5.2-0.5-10.2,2-14.9
			c2.2-4.3,5.8-6.9,10.4-8.1C18.8-0.4,24.1,0,29.2,2.7c4.4,2.3,6.9,6.1,8,10.8c1.6,6.8,0.5,13.4-2.6,19.6c-1.5,3.1-3.4,6-5.8,8.5
			c0,0-2.3,3.1-6.7,4.3c-1.9,0.6-3.9,0.5-5.9,0C12.1,44.3,9.7,41.9,9.7,41.9z M36.9,19.5c0.1,0,0.1,0,0.2,0
			c-0.2-1.8-0.3-3.6-0.7-5.3c-1.3-5.7-4.5-9.8-10.2-11.8C22.2,1,18.1,0.9,14,1.9c-5.8,1.4-9.7,5-11.5,10.7c-1.1,3.5-1.2,7-0.7,10.6
			c0.5,4,1.9,7.7,3.9,11.2c1.8,3.1,3.8,6,6.6,8.2c4.4,3.5,9.5,3.6,14,0.1c2-1.5,3.6-3.4,5-5.5C34.7,31.9,37,26.1,36.9,19.5z"/>
		<path class="st0" d="M25.2,31.4c-0.4-0.1-1.2-0.2-2-0.5c-1-0.3-1.5-1.1-1.6-2.2c-0.1-1.4,0.2-2.6,0.8-3.9c0.9-2.2,2.3-4.1,4.3-5.4
			c1.4-0.9,2.9-1.4,4.6-0.9c2.1,0.6,3.1,2.2,3.5,4.2c0.5,2.4-0.2,4.4-2.1,5.9C30.6,30.2,28.3,31.3,25.2,31.4z"/>
		<path class="st0" d="M12.8,31.3c-3.2-0.2-6-1.5-8.2-3.9c-2.3-2.7-0.8-7.3,1.6-8.5c1.6-0.8,3.2-0.7,4.8,0.1
			c2.1,1.1,3.5,2.8,4.5,4.8c0.6,1.2,1,2.5,1.2,3.7c0.4,2.3-0.7,3.5-3.1,3.8C13.4,31.3,13.1,31.3,12.8,31.3z"/>
		<path class="st0" d="M19.2,36.9c0.6,0,1.3,0,1.9,0c0.2,0,0.5,0.3,0.6,0.5c0.1,0.4-0.2,0.5-0.6,0.5c-1.3,0-2.5,0-3.8,0
			c-0.2,0-0.4-0.3-0.6-0.5c0.2-0.2,0.4-0.4,0.7-0.5C18,36.8,18.6,36.9,19.2,36.9z"/>
		<path class="st0" d="M20.9,33.3c0,0.5-0.4,0.7-0.7,0.5c-0.7-0.4-1.3-0.4-1.9,0c-0.1,0.1-0.5,0-0.6-0.1c-0.1-0.1-0.1-0.5-0.1-0.6
			c0.4-0.8,2.7-0.8,3.2,0C20.8,33.2,20.9,33.3,20.9,33.3z"/>
	</g>
</g>
</svg>
