<?xml version="1.0" encoding="utf-8"?>
<!-- Generator: Adobe Illustrator 24.0.0, SVG Export Plug-In . SVG Version: 6.00 Build 0)  -->
<svg version="1.1" id="Capa_1" xmlns="http://www.w3.org/2000/svg" xmlns:xlink="http://www.w3.org/1999/xlink" x="0px" y="0px"
	 viewBox="0 0 46.2 46.6" style="enable-background:new 0 0 46.2 46.6;" xml:space="preserve">
<style type="text/css">
	.st0{fill:#FFFFFF;}
</style>
<path class="st0" d="M37.9,5.9c1-1,2-2,2.9-2.9c0.4-0.4,0.7-0.8,1.1-1.1c0.7-0.6,1.5-0.7,2.3-0.3c0.8,0.4,1.3,1,1.3,1.9
	c0,4.1,0,8.2,0,12.3c0,1.2-1,2-2.3,2.1c-1.3,0-2.5,0-3.8,0c-2.7,0-5.4,0-8,0c-1.3,0-2.2-0.8-2.4-2c-0.1-0.7,0.2-1.3,0.7-1.9
	c1-1,2-2,3-3c0.1-0.1,0.3-0.2,0.5-0.4c-2.1-1.7-4.3-3-6.9-3.5c-5.9-1.1-11,0.7-15,5.1c-7.2,7.8-5.1,20.2,4.1,25.4
	c8.7,4.9,19.8,1,23.5-8.4c0.1-0.3,0.3-0.7,0.4-1c0.5-0.9,1.5-1.3,2.5-1.1c0.7,0.1,1.5,0.3,2.2,0.5c1.3,0.3,1.9,1.5,1.5,2.7
	c-3.1,8.6-9.1,13.9-18,15.6C15.2,48.3,3.3,40,0.9,27.8C-1.3,16.3,5.3,5,16.4,1.4C24-1,30.8,0.4,37,5.2c0.1,0.1,0.3,0.2,0.4,0.3
	C37.6,5.6,37.7,5.8,37.9,5.9z"/>
</svg>
