<?xml version="1.0" encoding="utf-8"?>
<!-- Generator: Adobe Illustrator 24.0.0, SVG Export Plug-In . SVG Version: 6.00 Build 0)  -->
<svg version="1.1" id="Capa_1" xmlns="http://www.w3.org/2000/svg" xmlns:xlink="http://www.w3.org/1999/xlink" x="0px" y="0px"
	 viewBox="0 0 46.2 46.6" style="enable-background:new 0 0 46.2 46.6;" xml:space="preserve">
<style type="text/css">
	.st0{fill:#FFFFFF;}
</style>
<path class="st0" d="M45.5,23.3c0,2.6-1.9,4.4-4.7,4.5c-6.1,0.3-11.1,4.2-12.7,10c-0.3,1.1-0.4,2.2-0.5,3.4c-0.2,2.7-2,4.6-4.6,4.6
	c-2.4,0-4.3-1.9-4.4-4.5c-0.4-7.8-5.6-13-13.4-13.4c-2.6-0.1-4.5-2-4.5-4.5c0-2.4,1.9-4.4,4.4-4.5c8-0.5,13-5.5,13.5-13.5
	c0.2-2.6,2.1-4.4,4.5-4.4c2.4,0,4.4,1.9,4.4,4.4c0,7.4,6,13.5,13.6,13.6C43.6,18.9,45.5,20.9,45.5,23.3z"/>
</svg>
